<?xml version="1.0" encoding="UTF-8" standalone="no"?>
<svg
   xmlns:dc="http://purl.org/dc/elements/1.1/"
   xmlns:cc="http://creativecommons.org/ns#"
   xmlns:rdf="http://www.w3.org/1999/02/22-rdf-syntax-ns#"
   xmlns:svg="http://www.w3.org/2000/svg"
   xmlns="http://www.w3.org/2000/svg"
   xml:space="preserve"
   style="enable-background:new 0 0 353.1 122.4;"
   viewBox="0 0 353.1 122.4"
   y="0px"
   x="0px"
   id="Capa_1"
   version="1.1"><metadata
   id="metadata107"><rdf:RDF><cc:Work
       rdf:about=""><dc:format>image/svg+xml</dc:format><dc:type
         rdf:resource="http://purl.org/dc/dcmitype/StillImage" /><dc:title></dc:title></cc:Work></rdf:RDF></metadata><defs
   id="defs105" />
<style
   id="style2"
   type="text/css">
	.st0{fill:#432918;}
	.st1{fill:#502C1E;}
</style>
<g
   id="g22">
	<path
   id="path4"
   d="M308.6,23.4c-0.2-1-0.8-1.9-1.7-2.5c-0.9-0.6-1.9-0.7-3-0.5c-1,0.2-1.9,0.8-2.5,1.7c-0.6,0.9-0.7,1.9-0.5,3   c1,4.4-1,9.3-4.6,11.6c-0.3,0.2-0.7,0.4-1.1,0.6l-1.9-21.7c-0.3-3-1.7-5.7-4-7.7c-2.3-1.9-5.2-2.9-8.2-2.6c-3,0.3-5.7,1.7-7.7,4   c-1.9,2.3-2.9,5.2-2.6,8.2l4.6,53.1c0.5,5.8,5.4,10.3,11.2,10.3c0.3,0,0.7,0,1,0c3-0.3,5.7-1.7,7.7-4c1.9-2.3,2.9-5.2,2.6-8.2   l-2-23.3c1.7-0.5,3.2-1.2,4.6-2.1C307,39.3,310.3,31.1,308.6,23.4z M289.3,72c-0.6,0.7-1.4,1.1-2.3,1.2c-1.9,0.2-3.5-1.2-3.7-3.1   l-2.3-26.3c2.1,1.2,4.6,2,7.1,2.3l2,23.3C290.1,70.4,289.9,71.2,289.3,72z M283.3,35.9c-2.1-1.8-3.4-4.4-3.7-7.2l-1-11.6   c-0.1-0.9,0.2-1.8,0.8-2.5s1.4-1.1,2.3-1.2c0.9-0.1,1.8,0.2,2.5,0.8c0.7,0.6,1.1,1.4,1.2,2.3l1.9,21.6   C285.8,37.6,284.4,36.8,283.3,35.9z"
   class="st0" />
	<path
   id="path6"
   d="M230.9,79.1l-1.5-17.7l-7.1,0l-1.5,17.7h-7.9l6.5-72.7h12.9l6.5,72.7H230.9z M222.9,53.5l5.8,0l-2.9-34.2   L222.9,53.5z"
   class="st0" />
	<path
   id="path8"
   d="M249.2,36c0-0.1,0.1-0.1,0.1-0.2c0.1,0,0.2,0,0.2,0.1L260,83.1h7.4V0.8l-7.9,0v47.9c0,0.1-0.1,0.1-0.1,0.2   c-0.1,0-0.2,0-0.2-0.1L248.6,0.8h-7.4v82.3h7.9V36z"
   class="st0" />
	<path
   id="path10"
   d="M211.2,17.8c0-5.2-1.6-14.1-11.9-14.2c-0.1,0-0.2,0-0.3,0c-7.8,0-12.5,5.8-12.7,15.4   c-0.1,8.5,1.3,13.8,6.1,21.9c0.8,1.4,3.3,5.8,4.6,7.9c4.8,8.2,5,13.5,4.9,19.6c-0.1,6.4-1.7,7.7-4.1,7.7l-0.1,0   c-2.5,0-3.8-1.6-3.9-4.8l0-0.1c0,0,0,0,0,0l0-0.4l0-0.1c0,0,0-0.1,0-0.2l0.2-9.3l-8.1-0.1l-0.2,12c-0.1,3.4,1,6.3,3.2,8.2   c2.1,1.9,5.1,2.9,8.8,3h0c0.1,0,0.3,0,0.3,0c8.1,0,12.4-5.3,12.5-15.8c0.2-10.1-1.4-16.4-5.9-24.2c-0.7-1.2-3.9-6.6-4.8-8   c-2.2-3.8-5.2-9.6-5.1-16.5c0.1-6.4,1.8-7.7,4.2-7.7l0.1,0c1.6,0,2.7,0.8,3.3,2.4c0.6,1.4,0.6,3.3,0.6,4.6l-0.1,7.9l8.2,0.1l0-0.2   C211.1,25.6,211.2,20.7,211.2,17.8z"
   class="st0" />
	<path
   id="path12"
   d="M168.2,2.9l-5.6,80.3l18.3,1.3l0.5-7.9l-9.8-0.7c0,0-0.1,0-0.1-0.1c0,0,0-0.1,0-0.1l1.9-27.6   c0,0,0-0.1,0.1-0.1c0,0,0.1,0,0.1,0c0.1,0,8,0.6,8,0.6l0.2,0l0.5-7.9l-8.2-0.6c0,0-0.1,0-0.1-0.1c0,0,0-0.1,0-0.1l2-28.5   c0,0,0-0.1,0.1-0.1c0,0,0.1,0,0.1,0c0.1,0,9.6,0.7,9.6,0.7l0.2,0l0.5-7.9L168.2,2.9z"
   class="st0" />
	<path
   id="path14"
   d="M79.7,13.2L76,84.3l7.9-0.3l0.7-17.3c0-0.1,0.1-0.2,0.2-0.2l6.2-0.3c0.1,0,0.2,0.1,0.2,0.1l2.2,17.2l7.9-0.3   l-9.9-70.5L79.7,13.2z M90.1,58.3c0,0-0.1,0.1-0.1,0.1l-4.8,0.2l0,0c0,0-0.1,0-0.1,0c0,0,0-0.1,0-0.1l1.2-28.7   c0-0.1,0.1-0.2,0.2-0.2c0.1,0,0.2,0.1,0.2,0.1l3.7,28.5C90.1,58.2,90.1,58.2,90.1,58.3z"
   class="st0" />
	<path
   id="path16"
   d="M139.6,7.4c1.1,0,7-0.2,9.1-0.3c0.2,0,0.5,0,0.7,0c0,0,0.3,0,0.4,0c3.6,0,8.4,1.1,11,6.1   c2.8,5.6,3.5,23.7,1,29.5c-2.3,5.5-7.4,6.8-11.3,6.9c-0.2,0-0.4,0-0.6,0c-0.1,0-0.4,0-0.4,0c-0.1,0-0.2,0-0.2,0.1   c-0.1,0.1-0.1,0.1-0.1,0.2l1,29.6l-8.2,0.3L139.6,7.4z M149.9,15.3c-0.5,0-1,0-1.5,0.1c-0.1,0-0.2,0.1-0.2,0.3l0.9,25.5   c0,0.1,0.1,0.3,0.3,0.3c0.3,0,0.6,0,0.9,0c2.2,0,3.6-0.7,4.2-2c0.4-1,1-4.9,0.8-11.3c-0.2-6.4-1.1-10.3-1.6-11.2   C152.9,15.8,151.7,15.3,149.9,15.3z"
   class="st0" />
	<path
   id="path18"
   d="M108.7,33.9c0.1,0,0.2,0,0.2,0.1l8.2,35.8l6.6-0.6l1.9-36.7c0-0.1,0.1-0.2,0.2-0.2c0.1,0,0.2,0.1,0.2,0.1   l4,45.7l7.8-0.7L131.1,0l-8.8,0.8l-3.5,47.2c0,0.1-0.1,0.1-0.1,0.2c-0.1,0-0.2,0-0.2-0.1L106.8,2.1L98,2.9l6.8,77.6l7.8-0.7   l-4-45.7C108.6,34,108.7,33.9,108.7,33.9z"
   class="st0" />
	<path
   id="path20"
   d="M60.6,0.3l-0.2,0C53.7,0.3,48,6,47.9,12.7c-0.4,19.2-0.7,38.7-1,58c-0.1,6.9,5.5,12.7,12.2,12.9l0.2,0   c6.6,0,12.3-5.7,12.5-12.4c0.1-5.4,0.2-10.7,0.3-16.1l0-0.2l-0.2,0c-2.6,0-5.3-0.1-8-0.1l-0.2,0l0,0.2c-0.1,5.4-0.2,10.8-0.3,16.2   c0,2.2-1.9,4-4,4l-0.1,0c-2.2,0-4-1.9-4-4.1c0.3-19.4,0.7-39,1-58.3c0-2.2,1.8-4,4-4l0.1,0c2.2,0,4,1.9,4,4.1   c-0.1,5.4-0.2,10.8-0.3,16.2l0,0.2l0.2,0c2.7,0.1,5.4,0.1,8,0.2l0.2,0l0-0.2c0.1-5.4,0.2-10.7,0.3-16.1C72.9,6.3,67.3,0.4,60.6,0.3   z"
   class="st0" />
</g>
<g
   id="g100">
	<g
   id="g98">
		<path
   id="path24"
   d="M5.6,119.5c0,1.8-1,2.9-2.7,2.9c-1.8,0-2.6-1-2.8-2.5C0,118.5,0,115.3,0,113.7c0-1.6,0-4.9,0-5.5    c0.1-2.1,1.1-2.9,3-2.9c1.6,0,2.5,1,2.5,3.1v2.6H3.7v-3c0-0.6-0.3-0.9-0.7-0.9c-0.6,0-0.9,0.4-0.9,1c0,0.7,0,4.2,0,5.4    c0,1.6,0,5.1,0,5.5c0,1,0.3,1.3,0.8,1.3c0.4,0,0.8-0.2,0.8-1.4v-2.5h1.9V119.5z"
   class="st1" />
		<path
   id="path26"
   d="M10.9,122.2H8.9l1.8-16.8h2.8l1.4,16.8h-2c0,0-0.2-3.3-0.3-4c0,0-1.5,0-1.5,0    C11.1,118.9,10.9,122.2,10.9,122.2z M12.2,110.6c0-0.7-0.1-2.4-0.1-2.4s-0.1,1.7-0.1,2.4c0,0.4-0.6,5.9-0.6,5.9h1.4    C12.6,116.4,12.2,111.2,12.2,110.6z"
   class="st1" />
		<path
   id="path28"
   d="M23.6,112.9c-0.2,0.5-0.6,1.1-0.9,1.2l1.4,8.2h-2l-1.3-7.6h-0.5v7.6h-1.9v-16.8h2.8c1.1,0,1.9,0.6,2.2,1.7    c0.2,0.6,0.4,1.6,0.4,3C23.9,111.4,23.8,112.3,23.6,112.9z M21.8,108.3c0-0.6-0.3-1-0.8-1h-0.6c0,0,0,5.1,0,5.5c0,0,0.5,0,0.6,0    c0.3-0.1,0.5-0.3,0.5-0.5c0.1-0.4,0.2-1.3,0.2-1.9C21.9,109.5,21.9,108.5,21.8,108.3z"
   class="st1" />
		<path
   id="path30"
   d="M31.5,122.2l-1.8-8.5v8.5h-1.8v-16.8h1.8l1.8,8.8v-8.8h1.8v16.8H31.5z"
   class="st1" />
		<path
   id="path32"
   d="M37.5,122.2v-16.8h2v16.8H37.5z"
   class="st1" />
		<path
   id="path34"
   d="M49.1,119.5c0,1.8-1,2.9-2.7,2.9c-1.8,0-2.6-1-2.8-2.5c-0.1-1.4-0.1-4.6-0.1-6.2c0-1.6,0-4.9,0-5.5    c0.1-2.1,1.1-2.9,3-2.9c1.6,0,2.5,1,2.5,3.1v2.6h-1.9v-3c0-0.6-0.3-0.9-0.7-0.9c-0.6,0-0.9,0.4-0.9,1c0,0.7,0,4.2,0,5.4    c0,1.6,0,5.1,0,5.5c0,1,0.3,1.3,0.8,1.3c0.4,0,0.8-0.2,0.8-1.4v-2.5h1.9V119.5z"
   class="st1" />
		<path
   id="path36"
   d="M53,122.2v-16.8h4.7v2h-2.7v5.4h2.4v1.9h-2.4v5.6h2.7v2H53z"
   class="st1" />
		<path
   id="path38"
   d="M66.4,112.9c-0.2,0.5-0.6,1.1-0.9,1.2l1.4,8.2h-2l-1.3-7.6h-0.5v7.6h-1.9v-16.8h2.8c1.1,0,1.9,0.6,2.2,1.7    c0.2,0.6,0.4,1.6,0.4,3C66.7,111.4,66.6,112.3,66.4,112.9z M64.6,108.3c0-0.6-0.3-1-0.8-1h-0.6c0,0,0,5.1,0,5.5c0,0,0.5,0,0.6,0    c0.3-0.1,0.5-0.3,0.5-0.5c0.1-0.4,0.2-1.3,0.2-1.9C64.7,109.5,64.6,108.5,64.6,108.3z"
   class="st1" />
		<path
   id="path40"
   d="M70.7,122.2v-16.8h2v16.8H70.7z M72,102.2h2l-1.4,2.6h-1.7L72,102.2z"
   class="st1" />
		<path
   id="path42"
   d="M78.3,122.2h-1.9l1.8-16.8h2.8l1.4,16.8h-2c0,0-0.2-3.3-0.3-4c0,0-1.5,0-1.5,0    C78.6,118.9,78.3,122.2,78.3,122.2z M79.6,110.6c0-0.7-0.1-2.4-0.1-2.4s-0.1,1.7-0.1,2.4c0,0.4-0.6,5.9-0.6,5.9h1.4    C80.1,116.4,79.6,111.2,79.6,110.6z"
   class="st1" />
		<path
   id="path44"
   d="M91.6,115.5v-3h2.2v3H91.6z"
   class="st1" />
		<path
   id="path46"
   d="M109,119.5c0,1.8-1,2.9-2.7,2.9c-1.8,0-2.6-1-2.8-2.5c-0.1-1.4-0.1-4.6-0.1-6.2c0-1.6,0-4.9,0-5.5    c0.1-2.1,1.1-2.9,3-2.9c1.6,0,2.5,1,2.5,3.1v2.6h-1.9v-3c0-0.6-0.3-0.9-0.7-0.9c-0.6,0-0.9,0.4-0.9,1c0,0.7,0,4.2,0,5.4    c0,1.6,0,5.1,0,5.5c0,1,0.3,1.3,0.8,1.3c0.4,0,0.8-0.2,0.8-1.4v-2.5h1.9V119.5z"
   class="st1" />
		<path
   id="path48"
   d="M116.4,122.2v-7.5h-1.5v7.5h-2v-16.8h2v7.3h1.5v-7.3h2v16.8H116.4z"
   class="st1" />
		<path
   id="path50"
   d="M123.9,122.2H122l1.8-16.8h2.8l1.4,16.8h-2c0,0-0.2-3.3-0.3-4c0,0-1.5,0-1.5,0    C124.2,118.9,123.9,122.2,123.9,122.2z M125.2,110.6c0-0.7-0.1-2.4-0.1-2.4s-0.1,1.7-0.1,2.4c0,0.4-0.6,5.9-0.6,5.9h1.4    C125.7,116.4,125.2,111.2,125.2,110.6z"
   class="st1" />
		<path
   id="path52"
   d="M136.7,112.9c-0.2,0.5-0.6,1.1-0.9,1.2l1.4,8.2h-2l-1.3-7.6h-0.5v7.6h-1.9v-16.8h2.8c1.1,0,1.9,0.6,2.2,1.7    c0.2,0.6,0.4,1.6,0.4,3C136.9,111.4,136.9,112.3,136.7,112.9z M134.9,108.3c0-0.6-0.3-1-0.8-1h-0.6c0,0,0,5.1,0,5.5    c0,0,0.5,0,0.6,0c0.3-0.1,0.5-0.3,0.5-0.5c0.1-0.4,0.2-1.3,0.2-1.9C135,109.5,134.9,108.5,134.9,108.3z"
   class="st1" />
		<path
   id="path54"
   d="M146.4,119.5c0,1.8-1,2.9-2.7,2.9c-1.8,0-2.6-1-2.8-2.5c-0.1-1.4-0.1-4.6-0.1-6.2c0-1.6,0-4.9,0-5.5    c0.1-2.1,1.1-2.9,3-2.9c1.6,0,2.5,1,2.5,3.1v2.6h-1.9v-3c0-0.6-0.3-0.9-0.7-0.9c-0.6,0-0.9,0.4-0.9,1c0,0.7,0,4.2,0,5.4    c0,1.6,0,5.1,0,5.5c0,1,0.3,1.3,0.8,1.3c0.4,0,0.8-0.2,0.8-1.4v-2.5h1.9V119.5z"
   class="st1" />
		<path
   id="path56"
   d="M153,122.3c-1.7,0-2.8-0.9-2.8-2.7c0-0.1,0-14.2,0-14.2h2c0,0,0,13.4,0,13.9c0,0.9,0.3,1.1,0.8,1.1    s0.7-0.3,0.7-1.1c0-0.5,0-13.9,0-13.9h2c0,0,0,14,0,14.2C155.6,121.4,154.7,122.3,153,122.3z"
   class="st1" />
		<path
   id="path58"
   d="M162.9,107.4v14.8h-2v-14.8h-1.6v-2h5.2v2H162.9z"
   class="st1" />
		<path
   id="path60"
   d="M168.2,122.2v-16.8h4.7v2h-2.7v5.4h2.4v1.9h-2.4v5.6h2.7v2H168.2z"
   class="st1" />
		<path
   id="path62"
   d="M181.6,112.9c-0.2,0.5-0.6,1.1-0.9,1.2l1.4,8.2h-2l-1.3-7.6h-0.5v7.6h-1.9v-16.8h2.8c1.1,0,1.9,0.6,2.2,1.7    c0.2,0.6,0.4,1.6,0.4,3C181.9,111.4,181.8,112.3,181.6,112.9z M179.8,108.3c0-0.6-0.3-1-0.8-1h-0.6c0,0,0,5.1,0,5.5    c0,0,0.5,0,0.6,0c0.3-0.1,0.5-0.3,0.5-0.5c0.1-0.4,0.2-1.3,0.2-1.9C179.9,109.5,179.8,108.5,179.8,108.3z"
   class="st1" />
		<path
   id="path64"
   d="M185.9,122.2v-16.8h2v16.8H185.9z M187.2,102.2h2l-1.4,2.6h-1.7L187.2,102.2z"
   class="st1" />
		<path
   id="path66"
   d="M193.5,122.2h-1.9l1.8-16.8h2.8l1.4,16.8h-2c0,0-0.2-3.3-0.3-4c0,0-1.5,0-1.5,0    C193.8,118.9,193.5,122.2,193.5,122.2z M194.8,110.6c0-0.7-0.1-2.4-0.1-2.4s-0.1,1.7-0.1,2.4c0,0.4-0.6,5.9-0.6,5.9h1.4    C195.3,116.4,194.8,111.2,194.8,110.6z"
   class="st1" />
		<path
   id="path68"
   d="M206.8,115.5v-3h2.2v3H206.8z"
   class="st1" />
		<path
   id="path70"
   d="M219.4,122.2c-0.5,0-0.7,0-1.1-0.1v-1.8c0.3,0,0.5,0,0.9,0c0.7,0,0.9-0.4,0.9-1v-13.9h2v14.1    C222,121.5,221.3,122.2,219.4,122.2z"
   class="st1" />
		<path
   id="path72"
   d="M227.5,122.2h-1.9l1.8-16.8h2.8l1.4,16.8h-2c0,0-0.2-3.3-0.3-4c0,0-1.5,0-1.5,0    C227.8,118.9,227.5,122.2,227.5,122.2z M228.8,110.6c0-0.7-0.1-2.4-0.1-2.4s-0.1,1.7-0.1,2.4c0,0.4-0.6,5.9-0.6,5.9h1.4    C229.3,116.4,228.8,111.2,228.8,110.6z"
   class="st1" />
		<path
   id="path74"
   d="M241.4,122.2l0-11.5l-1.4,11.5h-1.7l-1.4-11.5l0,11.5h-1.8v-16.8h2.6l1.4,12l1.5-12h2.5v16.8H241.4z"
   class="st1" />
		<path
   id="path76"
   d="M252.8,108.3c0,0.7,0,3.7,0,5.4c0,1.8,0,4.6,0,5.6c-0.1,2-0.9,3-2.8,3c-1.9,0-2.7-1-2.8-2.9    c0-0.5,0-4.1,0-5.6s0-5,0-5.4c0-1.8,0.8-3.1,2.8-3.1C251.9,105.3,252.8,106.3,252.8,108.3z M250.9,119.3c0-0.7,0-4.2,0-5.5    c0-1.2,0-4.6,0-5.3c0-0.9-0.2-1.3-0.8-1.3c-0.7,0-0.7,0.5-0.8,1.3c0,0.7,0,4.1,0,5.3c0,1.3,0,4.7,0,5.5c0,0.7,0.2,1.1,0.8,1.1    C250.7,120.5,250.8,120,250.9,119.3z"
   class="st1" />
		<path
   id="path78"
   d="M260.5,122.2l-1.8-8.5v8.5h-1.8v-16.8h1.8l1.8,8.8v-8.8h1.8v16.8H260.5z"
   class="st1" />
		<path
   id="path80"
   d="M266.4,122.2v-16.8h4.7v2h-2.7v5.4h2.4v1.9h-2.4v5.6h2.7v2H266.4z"
   class="st1" />
		<path
   id="path82"
   d="M277.2,122.4c-1.6,0-2.6-0.8-2.6-2.4v-2.3h1.8v1.7c0,0.8,0.3,1.1,0.8,1.1c0.5,0,0.8-0.3,0.8-1.6    c0-1.3-0.1-2.4-1.1-4c-0.2-0.4-0.8-1.3-1-1.6c-1-1.6-1.4-2.8-1.4-4.6c0-2.2,1.1-3.3,2.7-3.3c1.8,0,2.6,1.3,2.6,3    c0,0.7,0,1.8,0,1.8H278v-1.5c0-0.9-0.2-1.4-0.8-1.4s-0.8,0.4-0.8,1.6c0,1.3,0.5,2.4,1.1,3.4c0.2,0.3,0.9,1.4,1,1.7    c1,1.7,1.3,3,1.3,5.1C279.9,121.4,278.8,122.4,277.2,122.4z"
   class="st1" />
		<path
   id="path84"
   d="M289.3,115.5v-3h2.2v3H289.3z"
   class="st1" />
		<path
   id="path86"
   d="M304.5,122.2h-3.3v-16.8h3.1c1.1,0,1.8,0.4,2.1,1.3c0.2,0.6,0.3,1.9,0.3,2.8c0,0.9,0,2.3-0.2,2.8    c-0.2,0.7-0.5,1.1-1.1,1.3c0.7,0.1,1,0.5,1.2,1.1c0.2,0.6,0.2,2,0.2,2.9c0,1.1,0,2.6-0.3,3.2C306.2,121.7,305.8,122.2,304.5,122.2    z M304.7,108c0-0.5-0.3-0.9-0.8-0.9h-0.8v5.7h1c0.2,0,0.5-0.2,0.5-0.7c0-0.3,0-1.3,0-2.2C304.7,109.1,304.7,108.4,304.7,108z     M304.8,117.4c0-0.6,0-1.8,0-2.2c0-0.5-0.3-0.7-0.6-0.7h-1v5.9h0.9c0.3,0,0.7-0.2,0.7-0.7C304.8,119.4,304.8,118,304.8,117.4z"
   class="st1" />
		<path
   id="path88"
   d="M316.4,108.3c0,0.7,0,3.7,0,5.4c0,1.8,0,4.6,0,5.6c-0.1,2-0.9,3-2.8,3c-1.9,0-2.7-1-2.8-2.9    c0-0.5,0-4.1,0-5.6s0-5,0-5.4c0-1.8,0.8-3.1,2.8-3.1C315.4,105.3,316.3,106.3,316.4,108.3z M314.4,119.3c0-0.7,0-4.2,0-5.5    c0-1.2,0-4.6,0-5.3c0-0.9-0.2-1.3-0.8-1.3c-0.7,0-0.7,0.5-0.8,1.3c0,0.7,0,4.1,0,5.3c0,1.3,0,4.7,0,5.5c0,0.7,0.2,1.1,0.8,1.1    C314.2,120.5,314.3,120,314.4,119.3z"
   class="st1" />
		<path
   id="path90"
   d="M323.3,122.2h-2.8v-16.8h2.5c1.4,0,2.1,0.5,2.5,1.6c0.3,0.8,0.3,4.5,0.3,6.4c0,2.5,0,6.6-0.4,7.2    C325,121.5,324.7,122.2,323.3,122.2z M323.9,113.4c0-0.6,0-4.4,0-5c0-0.8-0.4-1.2-0.9-1.2h-0.6v13.4h0.8c0.3,0,0.7-0.3,0.7-0.9    C323.9,119,323.9,114,323.9,113.4z"
   class="st1" />
		<path
   id="path92"
   d="M329.8,122.2v-16.8h4.7v2h-2.7v5.4h2.4v1.9h-2.4v5.6h2.7v2H329.8z"
   class="st1" />
		<path
   id="path94"
   d="M342.2,122.2l-0.1-0.6c-0.3,0.4-0.9,0.7-1.5,0.7c-1.4,0-2.4-0.8-2.4-2.5c0-0.5-0.1-4.5-0.1-6    c0-1.6,0-4.6,0.1-5.9c0.1-1.4,0.8-2.6,2.7-2.6c1.9,0,2.5,1.2,2.6,2.3c0,0.7,0,3.2,0,3.2h-1.9c0,0,0-1.3,0-2.5    c0-0.8-0.2-1.1-0.7-1.1c-0.4,0-0.7,0.3-0.7,1.2c0,1,0,4.3,0,5.4c0,0.9,0,4.8,0,5.5c0,0.8,0.2,1.2,0.7,1.2c0.5,0,0.7-0.3,0.7-1.1    c0-0.5,0-4.6,0-4.6h-1v-1.7h2.9c0,0,0,4.3,0,5.3c0,1.9,0,3.8,0,3.8H342.2z"
   class="st1" />
		<path
   id="path96"
   d="M349,122.2h-1.9l1.8-16.8h2.8l1.4,16.8h-2c0,0-0.2-3.3-0.3-4c0,0-1.5,0-1.5,0    C349.3,118.9,349,122.2,349,122.2z M350.3,110.6c0-0.7-0.1-2.4-0.1-2.4s-0.1,1.7-0.1,2.4c0,0.4-0.6,5.9-0.6,5.9h1.4    C350.8,116.4,350.4,111.2,350.3,110.6z"
   class="st1" />
	</g>
</g>
</svg>